<svg width="320" height="320" viewBox="0 0 320 320" fill="none" xmlns="http://www.w3.org/2000/svg">
  <defs>
    <linearGradient id="bg" x1="32" y1="24" x2="286" y2="294" gradientUnits="userSpaceOnUse">
      <stop stop-color="#73E6FF"/>
      <stop offset="0.55" stop-color="#7EF3D0"/>
      <stop offset="1" stop-color="#B5FFD2"/>
    </linearGradient>
    <linearGradient id="shirt" x1="108" y1="176" x2="228" y2="292" gradientUnits="userSpaceOnUse">
      <stop stop-color="#0F2037"/>
      <stop offset="1" stop-color="#183253"/>
    </linearGradient>
    <linearGradient id="face" x1="117" y1="76" x2="201" y2="171" gradientUnits="userSpaceOnUse">
      <stop stop-color="#FFD9B8"/>
      <stop offset="1" stop-color="#F1B98F"/>
    </linearGradient>
    <filter id="shadow" x="20" y="18" width="280" height="284" filterUnits="userSpaceOnUse" color-interpolation-filters="sRGB">
      <feFlood flood-opacity="0" result="BackgroundImageFix"/>
      <feColorMatrix in="SourceAlpha" type="matrix" values="0 0 0 0 0 0 0 0 0 0 0 0 0 0 0 0 0 0 127 0" result="hardAlpha"/>
      <feOffset dy="16"/>
      <feGaussianBlur stdDeviation="18"/>
      <feComposite in2="hardAlpha" operator="out"/>
      <feColorMatrix type="matrix" values="0 0 0 0 0.012 0 0 0 0 0.071 0 0 0 0 0.145 0 0 0 0.32 0"/>
      <feBlend mode="normal" in2="BackgroundImageFix" result="effect1_dropShadow_1_1"/>
      <feBlend mode="normal" in="SourceGraphic" in2="effect1_dropShadow_1_1" result="shape"/>
    </filter>
  </defs>

  <g filter="url(#shadow)">
    <rect x="38" y="36" width="244" height="244" rx="62" fill="url(#bg)"/>
    <circle cx="250" cy="72" r="22" fill="rgba(255,255,255,0.24)"/>
    <circle cx="250" cy="72" r="12" fill="#F5FBFF"/>

    <path d="M95 250C103 214 127 192 160 192C193 192 217 214 225 250V280H95V250Z" fill="url(#shirt)"/>
    <path d="M143 186H177V209C177 220 170 228 160 228C150 228 143 220 143 209V186Z" fill="#EEB287"/>

    <path d="M111 114C111 84.1766 133.386 60 161 60C188.614 60 211 84.1766 211 114V136C211 169.137 188.614 192 161 192C133.386 192 111 169.137 111 136V114Z" fill="url(#face)"/>

    <path d="M109 119C109 77.281 132.891 54 162 54C196.381 54 214 80.8674 214 117V127C203.927 117.497 192.422 112.745 180.484 113.66C165.257 114.827 153.794 125.95 140.131 125.95C127.171 125.95 117.127 123.633 109 119Z" fill="#0B1220"/>
    <path d="M118 93C126.405 72.3902 141.815 62 164.23 62C184.228 62 200.133 74.2953 205.965 96.6881C195.077 89.417 182.122 85.5408 167.1 85.0593C147.936 84.4451 132.428 87.092 118 93Z" fill="#0F1C31"/>

    <ellipse cx="140" cy="130" rx="6" ry="7" fill="#142540"/>
    <ellipse cx="181" cy="130" rx="6" ry="7" fill="#142540"/>
    <path d="M149 150C156.267 156.231 165.733 156.231 173 150" stroke="#B86B54" stroke-width="4.5" stroke-linecap="round"/>
    <path d="M132 115C137.004 111.902 142.337 111.208 148 113" stroke="#1C304C" stroke-width="4" stroke-linecap="round"/>
    <path d="M173 113C178.663 111.208 183.996 111.902 189 115" stroke="#1C304C" stroke-width="4" stroke-linecap="round"/>

    <path d="M98 252C107.835 221.564 130.274 204 160 204C189.726 204 212.165 221.564 222 252" stroke="rgba(255,255,255,0.14)" stroke-width="5" stroke-linecap="round"/>

    <rect x="54" y="230" width="78" height="22" rx="11" fill="rgba(255,255,255,0.18)"/>
    <text x="93" y="245" text-anchor="middle" fill="#0B1220" font-family="Arial, Helvetica, sans-serif" font-size="11" font-weight="700" letter-spacing="1">JÜRGEN</text>
  </g>
</svg>
